# xmcd
#
# Track frame offsets: 
#        150
#        30179
#        60612
#        90264
#        122155
#        146965
#        168438
#        196147
#        221298
#        255762
#        291307
#        328054
#
# Disc length: 4665 seconds
#
# Revision: 2
# Processed by: cddbd v1.5.2PL0 Copyright (c) Steve Scherf et al.
# Submitted via: ExactAudioCopy v1.1
#
DISCID=a312370c
DTITLE=Various Artist - Hed Kandi Nu Disco
DYEAR=2009
DGENRE=Disco
TTITLE0=Aeroplane feat Kathy Diamond - Whispers
TTITLE1=Friendly Fires - Paris (Aeroplane Remix)
TTITLE2=Crazy P - Love On The Line
TTITLE3=Chromeo - Needy Girl (Lifelike Remix)
TTITLE4=Tom Middleton - Remember The Love
TTITLE5=Munk - Down In LA (Shazam Remix)
TTITLE6=Mini Viva - I Left My Heart In Tokyo (Fred Falke Dub)
TTITLE7=Damn Arms - Destination Pt II
TTITLE8=Relation - Your Tiny Mind (Lifelike Remix)
TTITLE9=Kora - Flow (Crazy P Remix)
TTITLE10=DOLLE JOLLE - Balearic Incarnation (Todd Terjes Extra Doll Mi
TTITLE10=x)
TTITLE11=The Orange Lights - Life Is Still Beautiful (Alan Braxe Remix
TTITLE11=)
EXTD=
EXTT0=
EXTT1=
EXTT2=
EXTT3=
EXTT4=
EXTT5=
EXTT6=
EXTT7=
EXTT8=
EXTT9=
EXTT10=
EXTT11=
PLAYORDER=
